<svg width="208" height="128" viewBox="0 0 208 128" fill="none" xmlns="http://www.w3.org/2000/svg">
<g filter="url(#filter0_d)">
<rect x="4" width="200" height="120" rx="5" fill="white"/>
<rect x="19" y="22" width="103" height="7" rx="3.5" fill="#F84AA7"/>
<rect x="19" y="76" width="118" height="3" rx="1.5" fill="#F84AA7"/>
<rect x="19" y="63" width="89" height="3" rx="1.5" fill="#F84AA7"/>
<rect x="19" y="39" width="128" height="3" rx="1.5" fill="#F84AA7"/>
<rect x="19" y="50" width="113" height="3" rx="1.5" fill="#F84AA7"/>
<path d="M154.213 40L157.213 47" stroke="#693668" stroke-width="2"/>
<line x1="157.026" y1="46.7751" x2="160.026" y2="33.7751" stroke="#693668" stroke-width="2"/>
<path d="M115.213 64L118.213 71" stroke="#693668" stroke-width="2"/>
<line x1="118.026" y1="70.7751" x2="121.026" y2="57.7751" stroke="#693668" stroke-width="2"/>
<path d="M144.213 77L147.213 84" stroke="#693668" stroke-width="2"/>
<line x1="147.026" y1="83.7751" x2="150.026" y2="70.7751" stroke="#693668" stroke-width="2"/>
<line x1="137.707" y1="48.2929" x2="146.707" y2="57.2929" stroke="#FF3562" stroke-width="2"/>
<line x1="137.293" y1="57.2929" x2="146.293" y2="48.2929" stroke="#FF3562" stroke-width="2"/>
</g>
<defs>
<filter id="filter0_d" x="0" y="0" width="208" height="128" filterUnits="userSpaceOnUse" color-interpolation-filters="sRGB">
<feFlood flood-opacity="0" result="BackgroundImageFix"/>
<feColorMatrix in="SourceAlpha" type="matrix" values="0 0 0 0 0 0 0 0 0 0 0 0 0 0 0 0 0 0 127 0"/>
<feOffset dy="4"/>
<feGaussianBlur stdDeviation="2"/>
<feColorMatrix type="matrix" values="0 0 0 0 0 0 0 0 0 0 0 0 0 0 0 0 0 0 0.25 0"/>
<feBlend mode="normal" in2="BackgroundImageFix" result="effect1_dropShadow"/>
<feBlend mode="normal" in="SourceGraphic" in2="effect1_dropShadow" result="shape"/>
</filter>
</defs>
</svg>
