<svg width="61" height="93" viewBox="0 0 61 93" fill="none" xmlns="http://www.w3.org/2000/svg">
<g filter="url(#filter0_d)">
<path d="M4.77942 36.5402L31.2794 42.4022V85L4.77942 78.7471V36.5402Z" fill="#A52F6E"/>
<path d="M32.8383 42.6868L57 37.9448V77.7046L32.8383 85V42.6868Z" fill="#F84AA7"/>
<path d="M4.38977 34.7843L29.3309 30.2192L56.2207 36.7427L32.6451 40.754L4.38977 34.7843Z" fill="#521737"/>
<path d="M10.4721 3.58871L35.9559 0.0198975L29.4838 27.6648L4 33.0288L10.4721 3.58871Z" fill="#4C1B35"/>
<path d="M10.8981 6.15085C9.94456 4.91914 10.6961 3.12316 12.2401 2.9438L35.5752 0.233147C36.2765 0.151683 36.9702 0.446253 37.4001 1.00813L41.307 6.11407C42.2282 7.31796 41.5338 9.06438 40.0399 9.3009L17.4242 12.8815C16.7017 12.9959 15.9731 12.7064 15.5244 12.1268L10.8981 6.15085Z" fill="#F84AA7"/>
</g>
<defs>
<filter id="filter0_d" x="0" y="0.0198975" width="61" height="92.9801" filterUnits="userSpaceOnUse" color-interpolation-filters="sRGB">
<feFlood flood-opacity="0" result="BackgroundImageFix"/>
<feColorMatrix in="SourceAlpha" type="matrix" values="0 0 0 0 0 0 0 0 0 0 0 0 0 0 0 0 0 0 127 0"/>
<feOffset dy="4"/>
<feGaussianBlur stdDeviation="2"/>
<feColorMatrix type="matrix" values="0 0 0 0 0 0 0 0 0 0 0 0 0 0 0 0 0 0 0.25 0"/>
<feBlend mode="normal" in2="BackgroundImageFix" result="effect1_dropShadow"/>
<feBlend mode="normal" in="SourceGraphic" in2="effect1_dropShadow" result="shape"/>
</filter>
</defs>
</svg>
